name rise44.9368peak50.754fall52.0217.mot
datacolumns 19
datarows 12
range 7.02497400000000 7.04331300000000
endheader
time	ground_force1_vx	ground_force1_vy	ground_force1_vz	ground_force1_px	ground_force1_py	ground_force1_pz	ground_force2_vx	ground_force2_vy	ground_force2_vz	ground_force2_px	ground_force2_py	ground_force2_pz	ground_torque1_x	ground_torque1_y	ground_torque1_z	ground_torque2_x	ground_torque2_y	ground_torque2_z	
7.02497400000000	3.90277100000000	695.93124499999999	47.70887000000000	0.28433700000000	0.00000000000000	0.10692600000000	0.00000000000000	0.00000000000000	0.00000000000000	0.00000000000000	0.00000000000000	0.00000000000000	0.00000000000000	24.81943100000000	0.00000000000000	0.00000000000000	0.00000000000000	0.00000000000000	
7.02664500000000	3.38058400000000	696.10901400000000	47.69498700000000	0.28344100000000	0.00000000000000	0.10695500000000	0.00000000000000	0.00000000000000	0.00000000000000	0.00000000000000	0.00000000000000	0.00000000000000	0.00000000000000	24.85652800000000	0.00000000000000	0.00000000000000	0.00000000000000	0.00000000000000	
7.02830700000000	2.85147700000000	696.32122900000002	47.68520200000000	0.28253300000000	0.00000000000000	0.10698500000000	0.00000000000000	0.00000000000000	0.00000000000000	0.00000000000000	0.00000000000000	0.00000000000000	0.00000000000000	24.89778600000000	0.00000000000000	0.00000000000000	0.00000000000000	0.00000000000000	
7.02997900000000	2.31533000000000	696.56746599999997	47.67935600000000	0.28161200000000	0.00000000000000	0.10701600000000	0.00000000000000	0.00000000000000	0.00000000000000	0.00000000000000	0.00000000000000	0.00000000000000	0.00000000000000	24.94308300000000	0.00000000000000	0.00000000000000	0.00000000000000	0.00000000000000	
7.03163900000000	1.77203700000000	696.84734700000001	47.67729700000000	0.28067800000000	0.00000000000000	0.10704900000000	0.00000000000000	0.00000000000000	0.00000000000000	0.00000000000000	0.00000000000000	0.00000000000000	0.00000000000000	24.99229900000000	0.00000000000000	0.00000000000000	0.00000000000000	0.00000000000000	
7.03330900000000	1.22150900000000	697.16055300000005	47.67887500000000	0.27972900000000	0.00000000000000	0.10708200000000	0.00000000000000	0.00000000000000	0.00000000000000	0.00000000000000	0.00000000000000	0.00000000000000	0.00000000000000	25.04531600000000	0.00000000000000	0.00000000000000	0.00000000000000	0.00000000000000	
7.03497600000000	0.66366700000000	697.50681899999995	47.68395000000000	0.27876600000000	0.00000000000000	0.10711700000000	0.00000000000000	0.00000000000000	0.00000000000000	0.00000000000000	0.00000000000000	0.00000000000000	0.00000000000000	25.10201800000000	0.00000000000000	0.00000000000000	0.00000000000000	0.00000000000000	
7.03664500000000	0.09845200000000	697.88594100000000	47.69238400000000	0.27778800000000	0.00000000000000	0.10715300000000	0.00000000000000	0.00000000000000	0.00000000000000	0.00000000000000	0.00000000000000	0.00000000000000	0.00000000000000	25.16228800000000	0.00000000000000	0.00000000000000	0.00000000000000	0.00000000000000	
7.03831200000000	-0.47418300000000	698.29777700000000	47.70404800000000	0.27679600000000	0.00000000000000	0.10719000000000	0.00000000000000	0.00000000000000	0.00000000000000	0.00000000000000	0.00000000000000	0.00000000000000	0.00000000000000	25.22601300000000	0.00000000000000	0.00000000000000	0.00000000000000	0.00000000000000	
7.03998000000000	-1.05426700000000	698.74225200000001	47.71882100000000	0.27578700000000	0.00000000000000	0.10722800000000	0.00000000000000	0.00000000000000	0.00000000000000	0.00000000000000	0.00000000000000	0.00000000000000	0.00000000000000	25.29308000000000	0.00000000000000	0.00000000000000	0.00000000000000	0.00000000000000	
7.04164400000000	-1.64181300000000	699.21935599999995	47.73659000000000	0.27476400000000	0.00000000000000	0.10726700000000	0.00000000000000	0.00000000000000	0.00000000000000	0.00000000000000	0.00000000000000	0.00000000000000	0.00000000000000	25.36338000000000	0.00000000000000	0.00000000000000	0.00000000000000	0.00000000000000	
7.04331300000000	-2.23681600000000	699.72914800000001	47.75725000000000	0.27372400000000	0.00000000000000	0.10730700000000	0.00000000000000	0.00000000000000	0.00000000000000	0.00000000000000	0.00000000000000	0.00000000000000	0.00000000000000	25.43680200000000	0.00000000000000	0.00000000000000	0.00000000000000	0.00000000000000	
